<?xml version="1.0" encoding="utf-8"?>
<!-- Generator: Adobe Illustrator 27.2.0, SVG Export Plug-In . SVG Version: 6.00 Build 0)  -->
<svg version="1.1" id="Layer_1" xmlns="http://www.w3.org/2000/svg" xmlns:xlink="http://www.w3.org/1999/xlink" x="0px" y="0px"
	 viewBox="0 0 577.8 577.8" style="enable-background:new 0 0 577.8 577.8;" xml:space="preserve">
<style type="text/css">
	.st0{fill:#1F429B;}
	.st1{fill:#D42D27;}
	.st2{fill:#FFFFFF;}
	.st3{fill:#EEEEEE;}
	.st4{fill:#D62612;}
	.st5{fill:#00966E;}
</style>
<path class="st0" d="M185.3,206.5l-41.8-30.4l-41.8,30.4l16-49.2l-41.8-30.4h51.7l16-49.2l16,49.2h51.7l-41.8,30.4L185.3,206.5z
	 M285.5,288.9H0V0h285.5V288.9z"/>
<rect y="288.9" class="st1" width="577.8" height="288.9"/>
<path class="st2" d="M159.4,126.9l-16-49.2l-16,49.2H75.8l41.8,30.4l-16,49.2l41.8-30.4l41.8,30.4l-16-49.2l41.8-30.4L159.4,126.9
	L159.4,126.9z"/>
<rect x="285.5" class="st3" width="292.2" height="288.9"/>
<g>
	<path class="st3" d="M582.2,0H-60.2C-110.9,0-152,39.8-152,88.9V200h826V88.9C674,39.8,632.9,0,582.2,0z"/>
	<path class="st4" d="M-152,488.9c0,49.1,41.1,88.9,91.8,88.9h642.4c50.7,0,91.8-39.8,91.8-88.9V377.8h-826V488.9z"/>
	<path class="st5" d="M-152,200h826v177.8h-826V200z"/>
</g>
</svg>
