<?xml version="1.0" encoding="utf-8"?>
<!-- Generator: Adobe Illustrator 27.2.0, SVG Export Plug-In . SVG Version: 6.00 Build 0)  -->
<svg version="1.1" id="Layer_1" xmlns="http://www.w3.org/2000/svg" xmlns:xlink="http://www.w3.org/1999/xlink" x="0px" y="0px"
	 viewBox="0 0 50 50" style="enable-background:new 0 0 50 50;" xml:space="preserve">
<style type="text/css">
	.st0{fill:#535353;}
	.st1{font-family:'Montserrat'; font-weight:700;}
	.st2{font-size:1.2196px;}
</style>
<path class="st0" d="M26.7,23.3h-0.3v1.2H26V25h-0.3v0.3h-0.3v1.3h0.3V27H25v-1h-0.3v-0.3h-0.3V26H24v0.3h-0.3v0.3H24V27h-0.7v-1.3
	H23v-0.3h-0.3V25h-0.3v-0.3H22v-0.3h-0.3v-2H22V23h0.3v0.3h0.3v0.3h0.7v-0.3h0.3V23h0.5v-0.3h0.5v-0.3H25v-2.2h0.3v-0.3H28v0.3h0.3
	v1.5h-1.7V22h1v0.3h-1.3V23H27v0.7h-0.3V23.3z M25.7,20.3v0.3H26v-0.3H25.7z"/>
<text transform="matrix(1 0 0 1 21.9966 28.416)" class="st0 st1 st2">LOADING</text>
</svg>
